<?xml version="1.0" encoding="UTF-8"?>
<svg id="Logo_copy" data-name="Logo copy" xmlns="http://www.w3.org/2000/svg" viewBox="0 0 2000 972.83">
  <defs>
    <style>
      .cls-1 {
        fill: #14849d;
      }

      .cls-2 {
        fill: #818385;
      }
    </style>
  </defs>
  <g>
    <path class="cls-1" d="M1578.97,682.45h-34.3v139.85h34.3v-86.93c12.02-14.78,28.97-22.56,50.85-23.36v-32.23c-20.5,0-37.45,6.8-50.85,20.41v-17.74ZM1488.87,728.57c-8.86-13.2-21.49-19.81-37.85-19.81-11.64,0-21.49,4.35-29.57,13.01-7.89,8.48-11.83,18.72-11.83,30.75s3.94,22.28,11.83,30.75c7.88,8.48,17.73,12.72,29.57,12.72,16.36,0,28.98-6.6,37.85-19.81v-47.61ZM1488.87,682.45h34v139.85h-34v-9.76c-12.22,8.68-26.52,13.01-42.87,13.01-19.52,0-36.18-7.1-49.98-21.29-13.6-14.19-20.4-31.43-20.4-51.74s6.8-37.55,20.4-51.74c13.8-14.38,30.46-21.58,49.98-21.58,16.36,0,30.65,4.33,42.87,13.01v-9.75ZM1251.61,716.19l-80.41-94.96h-27.64v201.06h37.57l-.61-134.55,71.24,84.25,70.32-83.07v133.37h37.57v-201.06h-28.26l-79.77,94.96ZM1661.03,610.89c-5.92,0-10.94,2.02-15.09,6.06-4.13,4.04-6.21,9.02-6.21,14.93s2.07,10.55,6.21,14.48c4.14,3.94,9.17,5.92,15.09,5.92s10.94-1.97,15.08-5.92c4.14-3.94,6.21-8.76,6.21-14.48s-2.07-10.89-6.21-14.93c-4.13-4.04-9.17-6.06-15.08-6.06M1644.17,822.3h34v-139.85h-34v139.85ZM1965.41,740.39c-1.38-10.05-5.12-17.93-11.24-23.65-6.11-5.72-14.19-8.57-24.24-8.57s-18.73,2.91-25.43,8.72c-6.71,5.82-11.04,13.65-13.01,23.51h73.93ZM2000,750.16c0,6.9-.3,12.11-.88,15.67h-107.34c2.37,9.66,7,17.19,13.9,22.62,6.9,5.42,15.87,8.12,26.91,8.12,13.79,0,23.25-4.32,28.39-13.01h36.36c-3.94,12.82-11.87,23.02-23.8,30.6-11.93,7.6-25.88,11.38-41.84,11.38-22.08,0-40.02-6.89-53.81-20.7-13.6-14-20.39-31.44-20.39-52.34s6.79-38.33,20.39-52.33c14-14,31.94-20.99,53.81-20.99,19.72,0,35.88,6.6,48.5,19.81,13.01,13.2,19.61,30.26,19.81,51.16M1780.12,678.01c-16.16,0-30.55,5.32-43.16,15.97v-11.53h-34.31v139.85h34.31v-93.14c11.03-13.4,23.06-20.11,36.07-20.11,10.64,0,19.01,3.31,25.13,9.91,6.11,6.6,9.17,16.02,9.17,28.24v75.1h34v-77.17c0-20.31-5.62-36.57-16.85-48.8-11.23-12.21-26.02-18.33-44.36-18.33"/>
    <path class="cls-1" d="M624.8,794.49c-3.06.38-6.03.61-8.84.61-17.74,0-26.61-8.87-26.61-26.61v-57.36h38.16v-28.68h-38.16v-51.15h-33.99v51.15h-31.94v28.68h31.94v57.36c0,17.94,4.82,32.14,14.48,42.58,9.66,10.45,22.87,15.66,39.61,15.66,5.47,0,11.51-.67,18.06-1.87l-2.7-30.37ZM1010.27,740.1l-26.01-4.13c-13.22-1.97-19.81-7.3-19.81-15.97,0-4.33,2.26-7.93,6.8-10.8,4.53-2.85,10.65-4.28,18.33-4.28,8.67,0,15.72,1.77,21.14,5.32,5.42,3.55,8.43,8.57,9.02,15.08l31.64-.3c-1.59-18.13-9.37-30.65-23.36-37.56-12.02-5.9-24.83-8.87-38.44-8.87-17.73,0-31.98,4.05-42.72,12.13-10.75,8.09-16.12,19.02-16.12,32.82,0,22.28,13.8,35.68,41.4,40.21l30.44,5.03c11.24,1.77,16.86,6.71,16.86,14.78,0,4.74-2.61,8.48-7.83,11.24-5.23,2.76-11.98,4.13-20.26,4.13-20.1,0-31.54-7.88-34.3-23.65l-31.34-.3c1.58,17.36,8.12,30.31,19.66,38.88,11.54,8.58,26.56,12.86,45.09,12.86s33.41-4.09,44.65-12.27c11.23-8.18,16.85-19.46,16.85-33.85,0-22.48-13.9-35.98-41.69-40.52M149.64,759.91l-121.4-138.67H0v201.06h37.25v-135.42l120.15,135.42h29.19v-201.06h-36.94v138.67ZM475.15,774.99c-10.84,13.81-22.97,20.7-36.37,20.7-10.65,0-19.02-3.34-25.13-10.05-6.12-6.69-9.17-16.06-9.17-28.09v-75.1h-34v77.17c0,20.51,5.61,36.76,16.85,48.79,11.23,12.22,26.02,18.33,44.35,18.33,16.36,0,30.86-5.41,43.47-16.26v11.83h34v-139.85h-34v92.54ZM317.09,728.57c-8.87-13.2-21.49-19.81-37.85-19.81-11.64,0-21.49,4.35-29.58,13.01-7.88,8.48-11.83,18.72-11.83,30.75s3.94,22.28,11.83,30.75c7.88,8.48,17.74,12.72,29.58,12.72,16.36,0,28.97-6.6,37.85-19.81v-47.61ZM317.09,682.45h34v139.85h-34v-9.76c-12.23,8.68-26.52,13.01-42.88,13.01-19.51,0-36.17-7.1-49.97-21.29-13.6-14.19-20.4-31.43-20.4-51.74s6.8-37.55,20.4-51.74c13.8-14.38,30.46-21.58,49.97-21.58,16.36,0,30.65,4.33,42.88,13.01v-9.75ZM875.28,774.99c-10.83,13.81-22.97,20.7-36.36,20.7-10.65,0-19.03-3.34-25.14-10.05-6.12-6.69-9.17-16.06-9.17-28.09v-75.1h-34v77.17c0,20.51,5.62,36.76,16.85,48.79,11.24,12.22,26.03,18.33,44.36,18.33,16.36,0,30.85-5.41,43.46-16.26v11.83h34.01v-139.85h-34.01v92.54ZM710.91,822.3h34.3v-209.93h-34.3v209.93ZM648.65,822.3h34v-139.85h-34v139.85ZM680.59,616.95c4.13,4.04,6.21,9.02,6.21,14.93s-2.07,10.55-6.21,14.48c-4.13,3.94-9.17,5.92-15.08,5.92s-10.94-1.97-15.09-5.92c-4.13-3.94-8.42-8.76-8.42-14.48s4.29-10.89,8.42-14.93c4.14-4.04,9.17-6.06,15.09-6.06s10.94,2.02,15.08,6.06"/>
  </g>
  <g>
    <path class="cls-2" d="M446.8,970.91h-18.47v-86.61h18.47v86.61Z"/>
    <path class="cls-2" d="M591.49,970.91h-14.27l-45.47-52.6v52.6h-18.47v-86.61h13.88l45.85,54.01v-54.01h18.47v86.61Z"/>
    <path class="cls-2" d="M713.48,888.12c7.26,4.08,12.48,11.97,13.5,22.67h-18.21c-1.27-8.54-6.75-12.74-16.43-12.74-9.17,0-15.03,3.95-15.03,10.57,0,5.6,3.95,8.28,12.23,9.93l10.7,2.17c17.71,3.57,26.37,10.57,26.37,24.45,0,8.28-3.18,15.03-9.43,20-6.24,4.97-14.65,7.51-24.96,7.51s-19.36-2.67-26.37-8.02c-7.01-5.48-10.83-12.87-11.59-22.42h18.34c1.4,8.79,9.04,14.27,20.63,14.27,9.17,0,14.27-3.31,14.27-9.3,0-4.59-3.57-7.51-10.83-8.92l-14.14-2.67c-16.43-3.06-24.71-11.85-24.71-25.47,0-8.28,3.06-15.03,9.04-20.13,6.11-5.1,14.14-7.64,24.07-7.64,8.02,0,15.41,1.66,22.54,5.73Z"/>
    <path class="cls-2" d="M867.55,931.56c0,12.87-3.56,22.93-10.7,30.31-7.01,7.26-16.56,10.95-28.53,10.95s-21.4-3.69-28.4-10.95c-7-7.39-10.57-17.45-10.57-30.31v-47.25h18.34v47.38c0,14.39,8.28,23.94,20.63,23.94s20.89-9.55,20.89-23.94v-47.38h18.34v47.25Z"/>
    <path class="cls-2" d="M951.74,944.04v26.87h-18.47v-86.61h36.94c10.06,0,18.34,2.8,24.71,8.28,6.5,5.48,9.68,12.61,9.68,21.53,0,12.36-6.88,22.16-18.09,26.87l23.69,29.93h-22.16l-21.27-26.87h-15.03ZM969.57,927.1c9.55,0,16.81-5.22,16.81-12.99s-7.26-12.99-16.81-12.99h-17.83v25.98h17.83Z"/>
    <path class="cls-2" d="M1091.8,954.23l-6.75,16.69h-19.61l37.32-87.12h17.32l37.19,87.12h-19.49l-6.75-16.69h-39.23ZM1111.28,905.83l-12.74,31.72h25.6l-12.87-31.72Z"/>
    <path class="cls-2" d="M1293.52,970.91h-14.27l-45.47-52.6v52.6h-18.47v-86.61h13.88l45.85,54.01v-54.01h18.47v86.61Z"/>
    <path class="cls-2" d="M1425.56,935.89h18.85c-1.78,11.08-6.49,20-14.26,26.75-7.77,6.75-17.2,10.06-28.4,10.06-12.74,0-23.44-4.2-32.22-12.74-8.66-8.53-12.99-19.36-12.99-32.35s4.33-23.69,12.99-32.22c8.79-8.53,19.49-12.86,32.22-12.86,11.21,0,20.63,3.31,28.4,10.06,7.77,6.75,12.48,15.67,14.26,26.75h-18.85c-3.06-12.36-11.47-19.23-23.82-19.23-7.77,0-14.14,2.55-19.11,7.64-4.97,5.1-7.51,11.72-7.51,19.87s2.55,14.78,7.51,19.87c4.97,5.1,11.34,7.64,19.11,7.64,12.35,0,20.76-6.88,23.82-19.23Z"/>
    <path class="cls-2" d="M1525.95,919.84h40.5v16.69h-40.5v17.7h45.73v16.69h-64.19v-86.61h64.19v16.69h-45.73v18.85Z"/>
  </g>
  <path class="cls-1" d="M1169,243.76l-96.11-86.08h-26.39v201.43h35.54v-145.52l86.95,77.87,86.72-77.66v145.31h35.54v-201.43h-26.17l-96.1,86.08ZM917.95,306.02l-183.13-148.33h-26.09v201.43h35.55v-148.03l182.76,148.03h26.46v-201.43h-35.55v148.33Z"/>
  <path class="cls-2" d="M1213.99,377.13h0l-55.47,18.19c-1.88.61-1.99,2.53-.9,4.17,0,0,2.45,2.83,3.55,5.63,1.07,2.71,1.79,6.19,1.83,6.4,0,0,0,0,0,0-38.55,21.17-82.23,35.06-128.85,39.65-4.93.57-9.9.98-14.89,1.3l-3.42-321.42,66.54-11.98c.91-.15,1.57-.94,1.57-1.85s-.66-1.7-1.57-1.85l-66.84-12.06-.13-12.81c19.73-6.92,32.5-25.99,31.05-47.21-1.57-23.15-20.54-41.88-43.71-43.22-.93-.06-1.83-.08-2.74-.08s-1.81.02-2.74.08c-23.17,1.34-42.14,20.07-43.71,43.22-1.46,21.22,11.32,40.29,31.05,47.21l-.13,12.81-66.84,12.06c-.91.15-1.57.94-1.57,1.85s.66,1.7,1.57,1.85l66.54,11.98-3.42,321.42c-4.99-.32-9.96-.74-14.89-1.3-46.62-4.59-90.3-18.48-128.85-39.65,0,0,0,0,0,0,.04-.21.76-3.69,1.83-6.4,1.1-2.79,3.55-5.63,3.55-5.63,1.1-1.64.98-3.56-.9-4.17l-55.47-18.19h0c-1.28-.33-2.65.84-2.28,2.31,17.75,70.51,170.63,93.45,210.38,143.59,1.51,1.91,3.7,2.85,5.9,2.85s4.38-.94,5.9-2.85c39.74-50.14,192.63-73.08,210.38-143.59.38-1.47-1-2.64-2.28-2.31ZM999.99,63.89c-9.56,0-17.33-7.77-17.33-17.33s7.77-17.33,17.33-17.33,17.33,7.79,17.33,17.33-7.77,17.33-17.33,17.33Z"/>
</svg>